<?xml version="1.0" encoding="UTF-8"?>
<svg width="93.029mm" height="93mm" version="1.1" viewBox="-10 -12 113.029 113" xmlns="http://www.w3.org/2000/svg" xmlns:cc="http://creativecommons.org/ns#" xmlns:dc="http://purl.org/dc/elements/1.1/" xmlns:rdf="http://www.w3.org/1999/02/22-rdf-syntax-ns#">
 <metadata>
  <rdf:RDF>
   <cc:Work rdf:about="">
    <dc:format>image/svg+xml</dc:format>
    <dc:type rdf:resource="http://purl.org/dc/dcmitype/StillImage"/>
    <dc:title/>
   </cc:Work>
  </rdf:RDF>
 </metadata>
 <g transform="translate(-36.148 -117.6)">
  <rect x="50" y="150" width="53" height="30" fill="#1f1f23" fill-rule="evenodd" stroke-width=".18365"/>
  <path d="m109.56 132.6c-0.098-4e-3 -0.18679-4e-3 -0.26539 4.1e-4 -1.2576 0.074-2.7927 0.33294-2.7927 0.33294l-70.329 9.4181s2.2519 31.583 13.533 42.347c11.281 10.764 20.2 11.342 29.406 10.453 9.2064-0.88926 19.407-5.8588 22.597-9.3635 3.1909-3.5047 3.9756-4.917 3.9756-4.917s12.552-2.5374 18.099-10.148c4.7479-6.5142 7.1873-14.9 3.8368-23.227-3.4384-8.5449-8.5862-10.866-11.172-12.562-1.8858-1.2372-5.4188-2.2705-6.8892-2.3339zm2.4164 15.388s2.0228 0.47924 3.569 3.0512c1.7894 2.9765 1.6367 5.5299 0.62909 8.6369-0.99379 3.0642-4.7532 5.6036-4.7532 5.6036zm-24.093 2.257c3.847-0.0584 8.073 2.4051 8.073 2.4051l-3.3477 7.6894s-1e-4 0.0784-0.91552-0.60158c-0.91541-0.68002-2.0157-1.4816-3.9364-0.60158-1.9429 0.89025-2.2492 2.7332-2.1053 4.7863 0.1427 2.0366 2.5108 3.74 4.6294 3.1908 2.1185-0.54925 3.7138-3.9752 3.7138-3.9752l7.1405 4.3413s-0.31392 0.83709-1.8047 3.0864c-1.4908 2.2493-4.452 4.2239-7.9249 5.074-3.7401 0.91542-6.4602 0.26142-9.9388-2.0402-3.1544-2.0871-4.1622-6.2406-4.3417-9.2587-0.19437-3.2687 0.66685-7.3435 2.1401-9.2037 1.73-2.1844 3.8275-4.4012 7.8553-4.8458 0.25174-0.0278 0.50653-0.0427 0.763-0.0465zm-25.265 0.73226c3.847-0.0584 8.0726 2.4051 8.0726 2.4051l-3.3477 7.6894s-1.11e-4 0.0784-0.91552-0.60158c-0.91541-0.68002-2.0153-1.4817-3.936-0.60158-1.9429 0.89025-2.2496 2.7332-2.1057 4.7863 0.14269 2.0366 2.5108 3.7404 4.6294 3.1912 2.1185-0.54924 3.7143-3.9756 3.7143-3.9756l7.1401 4.3417s-0.31392 0.83667-1.8047 3.086c-1.4908 2.2493-4.452 4.224-7.9249 5.074-3.7401 0.91541-6.4602 0.26182-9.9388-2.0398-3.1544-2.0871-4.1622-6.2406-4.3417-9.2587-0.19438-3.2687 0.66724-7.3439 2.1405-9.2041 1.73-2.1844 3.8275-4.4008 7.8553-4.8454 0.25174-0.0278 0.50653-0.0431 0.763-0.0469z" fill="#fff"/>
 </g>
</svg>
